<?xml version="1.0" encoding="utf-8"?>
<!-- Generator: Adobe Illustrator 19.0.0, SVG Export Plug-In . SVG Version: 6.00 Build 0)  -->
<svg version="1.1" id="Layer_1" xmlns="http://www.w3.org/2000/svg" xmlns:xlink="http://www.w3.org/1999/xlink" x="0px" y="0px"
	 viewBox="0 0 24 24" style="enable-background:new 0 0 24 24;" xml:space="preserve">
<style type="text/css">
	.st0{fill:#10B9FF;}
</style>
<g>
	<path class="st0" d="M12,0C6.6,0,2.1,3.7,0.7,8.6h2.1c0.5-1.6,1.5-3,2.7-4.1l2.7,4.1h1.2L6.3,3.9C7.9,2.7,9.9,2,12,2
		s4.1,0.7,5.7,1.9l-3.1,4.8h1.2l2.7-4.1c1.2,1.1,2.2,2.5,2.7,4.1h2.1C21.9,3.7,17.4,0,12,0z"/>
	<g>
		<path class="st0" d="M14,7.3h-3.5c-0.2,0-0.4-0.1-0.5-0.3C10,6.8,10,6.6,10.1,6.5l2.3-2.7H10v-1h3.5c0.2,0,0.4,0.1,0.5,0.3
			C14,3.3,14,3.5,13.9,3.6l-2.3,2.7H14V7.3z"/>
	</g>
</g>
<path class="st0" d="M21.2,23.1c0-0.2-0.1-0.4-0.2-0.6l0,0l0,0L18.4,18l-5.6-9.6c-0.1-0.3-0.5-0.5-0.8-0.5c-0.4,0-0.6,0.2-0.9,0.7
	L6.8,16l-3.7,6.5c-0.1,0.1-0.2,0.4-0.2,0.4v0.2c0,0.4,0.3,0.8,0.7,0.9l0,0h16.6h0.1C20.8,24,21.2,23.6,21.2,23.1z M17.4,20.9
	c0,0.3-0.2,0.5-0.5,0.5l0,0H7l0,0c-0.2-0.1-0.4-0.3-0.4-0.5c0-0.1,0-0.1,0-0.1l0.1-0.2l2.2-3.8l2.6-4.4c0.1-0.3,0.3-0.4,0.5-0.4
	s0.4,0.1,0.5,0.3l3.3,5.7l1.5,2.7l0,0l0,0C17.3,20.6,17.4,20.8,17.4,20.9z"/>
<rect x="11.4" y="13.4" class="st0" width="1.1" height="5.6"/>
<rect x="11.4" y="19.7" class="st0" width="1.1" height="1.2"/>
</svg>
